<svg id="Layer_1" data-name="Layer 1" xmlns="http://www.w3.org/2000/svg" viewBox="0 0 261.08 68.08"><defs><style>.cls-1{fill:#1d1d1b;}</style></defs><polygon class="cls-1" points="93.9 64.22 34.93 3.86 14.81 3.86 73.78 64.22 93.9 64.22"/><polygon class="cls-1" points="124.08 64.22 65.11 3.86 44.99 3.86 103.96 64.22 124.08 64.22"/><path class="cls-1" d="M88.81,17.88H133.5c2.25,0,3.38.75,3.38,2.33V25c0,1.57-1,2.4-2.93,2.4H98.12l35.67,36.51h19.73L128.85,39.18h6.45C145.72,39.18,151,34.08,151,24v-5.4q0-14.62-17.32-14.62H75.19Z"/><path class="cls-1" d="M246.26,44.88c0,12.67-7.49,19-22.56,19H177.36c-15.07,0-22.57-6.37-22.57-19V23.06c0-12.75,7.5-19.12,22.57-19.12H223.7c15.07,0,22.56,6.37,22.56,19.12Zm-68.9-27q-7.87,0-7.88,5.18V44.88c0,3.37,2.63,5.09,7.88,5.09H223.7c5.25,0,7.87-1.72,7.87-5.09V23.06q0-5.18-7.87-5.18Z"/></svg>
